<svg width="109" height="104" viewBox="0 0 109 104" fill="none" xmlns="http://www.w3.org/2000/svg">
<g clip-path="url(#clip0_202_11)">
<rect width="109" height="104" rx="10" fill="#3268F9"/>
<g filter="url(#filter0_d_202_11)">
<path d="M20.125 44.688C20.6663 44.688 21.256 44.8717 21.894 45.239C22.5513 45.6063 22.88 45.993 22.88 46.399C22.88 46.805 22.5513 48.1777 21.894 50.517C21.2367 52.8563 20.2023 54.9637 18.791 56.839C17.399 58.695 16.3647 59.623 15.688 59.623C15.4173 59.623 15.0113 59.4297 14.47 59.043C13.9287 58.6563 13.542 58.2213 13.31 57.738C12.904 56.9453 12.701 54.6253 12.701 50.778C11.8697 53.4847 10.9223 55.6403 9.859 57.245C8.79567 58.8303 7.93533 59.623 7.278 59.623C6.988 59.623 6.56267 59.4297 6.002 59.043C5.46067 58.6563 5.11267 58.2697 4.958 57.883C4.53267 56.839 4.12667 54.8477 3.74 51.909C3.35333 48.9703 3.16 46.9597 3.16 45.877C3.16 45.0843 3.43067 44.688 3.972 44.688C4.70667 44.688 5.46067 45.1327 6.234 46.022C7.00733 46.9113 7.394 47.6073 7.394 48.11C7.394 50.9133 7.423 53.1463 7.481 54.809C8.25433 53.6297 8.95033 52.1603 9.569 50.401C10.207 48.6417 10.7193 47.2497 11.106 46.225C11.4927 45.2003 11.8987 44.688 12.324 44.688C13.1747 44.688 14.0157 45.1037 14.847 45.935C15.6783 46.747 16.094 47.5783 16.094 48.429C16.094 48.8157 16.0263 49.618 15.891 50.836C15.775 52.054 15.717 52.9723 15.717 53.591C15.717 54.2097 15.7557 54.722 15.833 55.128C16.471 54.49 17.022 53.5523 17.486 52.315C17.9693 51.0777 18.3173 49.908 18.53 48.806C19.0713 46.0607 19.603 44.688 20.125 44.688ZM34.7689 50.952C35.0589 51.2807 35.2039 51.677 35.2039 52.141C35.2039 52.605 35.0105 53.1753 34.6239 53.852C34.1405 55.012 33.7152 56.4523 33.3479 58.173C32.9805 59.8937 32.6132 61.2663 32.2459 62.291C31.8979 63.335 31.5112 64.2243 31.0859 64.959C30.6799 65.6937 30.1192 66.3027 29.4039 66.786C28.6885 67.2693 27.8669 67.511 26.9389 67.511C25.6435 67.511 24.4835 67.0857 23.4589 66.235C22.4342 65.3843 21.9219 64.6497 21.9219 64.031C21.9219 63.4317 22.0862 62.8807 22.4149 62.378C22.7435 61.8947 23.0432 61.653 23.3139 61.653C23.6039 61.653 23.8745 61.8077 24.1259 62.117C24.3965 62.4263 24.6382 62.755 24.8509 63.103C25.0829 63.4703 25.3825 63.8087 25.7499 64.118C26.1172 64.4273 26.5232 64.582 26.9679 64.582C27.4125 64.582 27.8185 64.292 28.1859 63.712C28.5532 63.132 28.8335 62.5037 29.0269 61.827C29.5102 60.2417 29.8099 59.1107 29.9259 58.434C28.6112 59.246 27.5382 59.652 26.7069 59.652C25.8949 59.652 25.1022 59.2073 24.3289 58.318C23.5555 57.4093 23.1689 56.5587 23.1689 55.766C23.1689 54.954 23.3815 53.9487 23.8069 52.75C24.2515 51.532 24.8122 50.3237 25.4889 49.125C26.1849 47.907 27.0549 46.863 28.0989 45.993C29.1622 45.123 30.2255 44.688 31.2889 44.688C32.0042 44.688 32.6132 44.8717 33.1159 45.239C33.6185 45.587 33.9859 46.0607 34.2179 46.66C34.6239 47.704 34.8269 48.8833 34.8269 50.198C34.8269 50.3913 34.8075 50.6427 34.7689 50.952ZM26.7359 55.621C26.7359 55.8723 26.8422 55.998 27.0549 55.998C27.6155 55.998 28.5242 55.4857 29.7809 54.461C31.0375 53.4363 31.8785 52.4213 32.3039 51.416V50.865C32.3039 49.6083 32.1879 48.8447 31.9559 48.574C31.8399 48.4387 31.6852 48.371 31.4919 48.371C30.5639 48.371 29.5392 49.3473 28.4179 51.3C27.2965 53.2527 26.7359 54.693 26.7359 55.621ZM53.6608 59.159C53.6608 59.681 53.0034 60.0483 51.6888 60.261C50.3934 60.4737 48.8081 60.6283 46.9328 60.725C45.0574 60.841 43.8781 60.9183 43.3948 60.957C42.9308 60.9957 42.2154 61.0633 41.2488 61.16C40.3014 61.276 39.5378 61.334 38.9578 61.334C38.5904 61.334 38.2134 61.0633 37.8268 60.522C37.4401 59.9807 37.2468 59.4393 37.2468 58.898C37.2468 58.086 40.0211 57.68 45.5698 57.68C49.1464 57.68 51.4664 57.854 52.5298 58.202C53.2838 58.4147 53.6608 58.7337 53.6608 59.159ZM59.3199 56.694C60.3639 56.23 61.2725 55.2923 62.0459 53.881C62.8192 52.4697 63.2059 51.1453 63.2059 49.908C63.2059 48.6707 63.0319 47.82 62.6839 47.356C61.8525 47.8393 61.0212 48.8543 60.1899 50.401C59.3779 51.9477 58.9719 53.3107 58.9719 54.49C58.9719 55.65 59.0879 56.3847 59.3199 56.694ZM55.0859 54.78C55.0859 52.3633 55.8302 50.0723 57.3189 47.907C58.8269 45.7417 60.3155 44.659 61.7849 44.659C63.2542 44.659 64.4915 45.181 65.4969 46.225C66.5022 47.2497 67.0049 48.4967 67.0049 49.966C67.0049 51.416 66.6569 52.895 65.9609 54.403C65.2649 55.911 64.2885 57.1677 63.0319 58.173C61.7752 59.159 60.4315 59.652 59.0009 59.652C57.9375 59.652 57.0192 59.1783 56.2459 58.231C55.4725 57.2837 55.0859 56.1333 55.0859 54.78ZM79.2734 45.413C79.3894 44.9297 79.7084 44.688 80.2304 44.688C80.7524 44.688 81.2841 45.0167 81.8254 45.674C82.3861 46.3313 82.6664 47.0757 82.6664 47.907C82.6664 48.3903 82.4924 49.154 82.1444 50.198C81.7964 51.242 81.5451 51.9863 81.3904 52.431C81.2551 52.8757 81.0521 53.4847 80.7814 54.258C80.5108 55.012 80.2594 55.7177 80.0274 56.375C79.8148 57.013 79.5151 57.8733 79.1284 58.956C78.7611 60.0387 78.4228 61.044 78.1134 61.972C77.5141 63.712 76.7794 65.0557 75.9094 66.003C75.0588 66.9503 73.9471 67.424 72.5744 67.424C71.2018 67.424 69.9741 67.0567 68.8914 66.322C67.8088 65.6067 67.2674 64.8817 67.2674 64.147C67.2674 63.7023 67.4608 63.2093 67.8474 62.668C68.2534 62.1267 68.5918 61.856 68.8624 61.856C69.1524 61.856 69.5198 62.0783 69.9644 62.523C70.4284 62.987 70.9021 63.4413 71.3854 63.886C71.8688 64.35 72.2941 64.582 72.6614 64.582C72.9128 64.582 73.1158 64.466 73.2704 64.234C73.4444 64.002 73.5798 63.7893 73.6764 63.596C73.7924 63.422 73.9084 63.1707 74.0244 62.842C74.1404 62.5327 74.2468 62.2427 74.3434 61.972C74.4401 61.7013 74.5561 61.3437 74.6914 60.899C74.8268 60.4543 74.9428 60.058 75.0394 59.71C75.3681 58.666 75.6484 57.738 75.8804 56.926C75.2424 57.7573 74.5851 58.4243 73.9084 58.927C73.2318 59.4103 72.6034 59.652 72.0234 59.652C71.4628 59.652 70.7571 59.2267 69.9064 58.376C69.0751 57.506 68.6594 56.5587 68.6594 55.534C68.6594 54.49 68.8818 53.098 69.3264 51.358C69.7904 49.618 70.3608 48.0713 71.0374 46.718C71.7141 45.3647 72.3134 44.688 72.8354 44.688C73.4348 44.688 73.9954 44.949 74.5174 45.471C75.0588 45.9737 75.3294 46.4667 75.3294 46.95C75.3294 47.414 75.0878 48.168 74.6044 49.212C74.1404 50.256 73.6668 51.3967 73.1834 52.634C72.7001 53.8713 72.4584 54.925 72.4584 55.795C72.4584 55.911 72.5068 55.969 72.6034 55.969C72.8548 55.969 73.3864 55.505 74.1984 54.577C75.0104 53.6297 75.9191 52.2957 76.9244 50.575C77.9491 48.835 78.7321 47.1143 79.2734 45.413ZM87.6119 56.694C88.6559 56.23 89.5645 55.2923 90.3379 53.881C91.1112 52.4697 91.4979 51.1453 91.4979 49.908C91.4979 48.6707 91.3239 47.82 90.9759 47.356C90.1445 47.8393 89.3132 48.8543 88.4819 50.401C87.6699 51.9477 87.2639 53.3107 87.2639 54.49C87.2639 55.65 87.3799 56.3847 87.6119 56.694ZM83.3779 54.78C83.3779 52.3633 84.1222 50.0723 85.6109 47.907C87.1189 45.7417 88.6075 44.659 90.0769 44.659C91.5462 44.659 92.7835 45.181 93.7889 46.225C94.7942 47.2497 95.2969 48.4967 95.2969 49.966C95.2969 51.416 94.9489 52.895 94.2529 54.403C93.5569 55.911 92.5805 57.1677 91.3239 58.173C90.0672 59.159 88.7235 59.652 87.2929 59.652C86.2295 59.652 85.3112 59.1783 84.5379 58.231C83.7645 57.2837 83.3779 56.1333 83.3779 54.78ZM98.3434 49.589L98.1694 46.312C98.1694 45.2293 98.5078 44.688 99.1844 44.688C99.5711 44.688 99.9481 44.833 100.315 45.123C100.702 45.413 100.992 45.8673 101.185 46.486C101.843 45.906 102.558 45.442 103.331 45.094C104.124 44.7267 104.82 44.543 105.419 44.543C106.831 44.543 107.536 44.8813 107.536 45.558C107.536 45.906 107.469 46.167 107.333 46.341C107.217 46.4957 107.121 46.6117 107.043 46.689C106.985 46.7663 106.869 46.8727 106.695 47.008C106.541 47.124 106.425 47.211 106.347 47.269C105.903 47.559 105.584 47.762 105.39 47.878C104.52 48.4193 103.776 49.0767 103.157 49.85C102.539 50.604 102.075 51.6577 101.765 53.011C101.243 55.2343 100.731 56.897 100.228 57.999C99.7451 59.0817 99.1941 59.623 98.5754 59.623C97.9761 59.623 97.5218 59.333 97.2124 58.753C96.9224 58.173 96.7774 57.6317 96.7774 57.129C96.7774 56.607 96.9611 55.8337 97.3284 54.809C97.7151 53.7843 97.9761 52.9047 98.1114 52.17C98.2661 51.416 98.3434 50.5557 98.3434 49.589Z" fill="white"/>
</g>
</g>
<defs>
<filter id="filter0_d_202_11" x="0.160034" y="44.543" width="112.376" height="30.968" filterUnits="userSpaceOnUse" color-interpolation-filters="sRGB">
<feFlood flood-opacity="0" result="BackgroundImageFix"/>
<feColorMatrix in="SourceAlpha" type="matrix" values="0 0 0 0 0 0 0 0 0 0 0 0 0 0 0 0 0 0 127 0" result="hardAlpha"/>
<feOffset dx="1" dy="4"/>
<feGaussianBlur stdDeviation="2"/>
<feComposite in2="hardAlpha" operator="out"/>
<feColorMatrix type="matrix" values="0 0 0 0 0 0 0 0 0 0 0 0 0 0 0 0 0 0 0.48 0"/>
<feBlend mode="normal" in2="BackgroundImageFix" result="effect1_dropShadow_202_11"/>
<feBlend mode="normal" in="SourceGraphic" in2="effect1_dropShadow_202_11" result="shape"/>
</filter>
<clipPath id="clip0_202_11">
<rect width="109" height="104" rx="10" fill="white"/>
</clipPath>
</defs>
</svg>
