<svg width="105" height="24" viewBox="0 0 105 24" fill="none" xmlns="http://www.w3.org/2000/svg">
<path d="M17.125 0.688C17.6663 0.688 18.256 0.871667 18.894 1.239C19.5513 1.60633 19.88 1.993 19.88 2.399C19.88 2.805 19.5513 4.17767 18.894 6.517C18.2367 8.85633 17.2023 10.9637 15.791 12.839C14.399 14.695 13.3647 15.623 12.688 15.623C12.4173 15.623 12.0113 15.4297 11.47 15.043C10.9287 14.6563 10.542 14.2213 10.31 13.738C9.904 12.9453 9.701 10.6253 9.701 6.778C8.86967 9.48467 7.92233 11.6403 6.859 13.245C5.79567 14.8303 4.93533 15.623 4.278 15.623C3.988 15.623 3.56267 15.4297 3.002 15.043C2.46067 14.6563 2.11267 14.2697 1.958 13.883C1.53267 12.839 1.12667 10.8477 0.74 7.909C0.353333 4.97033 0.16 2.95967 0.16 1.877C0.16 1.08433 0.430667 0.688 0.972 0.688C1.70667 0.688 2.46067 1.13267 3.234 2.022C4.00733 2.91133 4.394 3.60733 4.394 4.11C4.394 6.91333 4.423 9.14633 4.481 10.809C5.25433 9.62967 5.95033 8.16033 6.569 6.401C7.207 4.64167 7.71933 3.24967 8.106 2.225C8.49267 1.20033 8.89867 0.688 9.324 0.688C10.1747 0.688 11.0157 1.10367 11.847 1.935C12.6783 2.747 13.094 3.57833 13.094 4.429C13.094 4.81567 13.0263 5.618 12.891 6.836C12.775 8.054 12.717 8.97233 12.717 9.591C12.717 10.2097 12.7557 10.722 12.833 11.128C13.471 10.49 14.022 9.55233 14.486 8.315C14.9693 7.07767 15.3173 5.908 15.53 4.806C16.0713 2.06067 16.603 0.688 17.125 0.688ZM31.7689 6.952C32.0589 7.28067 32.2039 7.677 32.2039 8.141C32.2039 8.605 32.0105 9.17533 31.6239 9.852C31.1405 11.012 30.7152 12.4523 30.3479 14.173C29.9805 15.8937 29.6132 17.2663 29.2459 18.291C28.8979 19.335 28.5112 20.2243 28.0859 20.959C27.6799 21.6937 27.1192 22.3027 26.4039 22.786C25.6885 23.2693 24.8669 23.511 23.9389 23.511C22.6435 23.511 21.4835 23.0857 20.4589 22.235C19.4342 21.3843 18.9219 20.6497 18.9219 20.031C18.9219 19.4317 19.0862 18.8807 19.4149 18.378C19.7435 17.8947 20.0432 17.653 20.3139 17.653C20.6039 17.653 20.8745 17.8077 21.1259 18.117C21.3965 18.4263 21.6382 18.755 21.8509 19.103C22.0829 19.4703 22.3825 19.8087 22.7499 20.118C23.1172 20.4273 23.5232 20.582 23.9679 20.582C24.4125 20.582 24.8185 20.292 25.1859 19.712C25.5532 19.132 25.8335 18.5037 26.0269 17.827C26.5102 16.2417 26.8099 15.1107 26.9259 14.434C25.6112 15.246 24.5382 15.652 23.7069 15.652C22.8949 15.652 22.1022 15.2073 21.3289 14.318C20.5555 13.4093 20.1689 12.5587 20.1689 11.766C20.1689 10.954 20.3815 9.94867 20.8069 8.75C21.2515 7.532 21.8122 6.32367 22.4889 5.125C23.1849 3.907 24.0549 2.863 25.0989 1.993C26.1622 1.123 27.2255 0.688 28.2889 0.688C29.0042 0.688 29.6132 0.871667 30.1159 1.239C30.6185 1.587 30.9859 2.06067 31.2179 2.66C31.6239 3.704 31.8269 4.88333 31.8269 6.198C31.8269 6.39133 31.8075 6.64267 31.7689 6.952ZM23.7359 11.621C23.7359 11.8723 23.8422 11.998 24.0549 11.998C24.6155 11.998 25.5242 11.4857 26.7809 10.461C28.0375 9.43633 28.8785 8.42133 29.3039 7.416V6.865C29.3039 5.60833 29.1879 4.84467 28.9559 4.574C28.8399 4.43867 28.6852 4.371 28.4919 4.371C27.5639 4.371 26.5392 5.34733 25.4179 7.3C24.2965 9.25267 23.7359 10.693 23.7359 11.621ZM50.6608 15.159C50.6608 15.681 50.0034 16.0483 48.6888 16.261C47.3934 16.4737 45.8081 16.6283 43.9328 16.725C42.0574 16.841 40.8781 16.9183 40.3948 16.957C39.9308 16.9957 39.2154 17.0633 38.2488 17.16C37.3014 17.276 36.5378 17.334 35.9578 17.334C35.5904 17.334 35.2134 17.0633 34.8268 16.522C34.4401 15.9807 34.2468 15.4393 34.2468 14.898C34.2468 14.086 37.0211 13.68 42.5698 13.68C46.1464 13.68 48.4664 13.854 49.5298 14.202C50.2838 14.4147 50.6608 14.7337 50.6608 15.159ZM56.3199 12.694C57.3639 12.23 58.2725 11.2923 59.0459 9.881C59.8192 8.46967 60.2059 7.14533 60.2059 5.908C60.2059 4.67067 60.0319 3.82 59.6839 3.356C58.8525 3.83933 58.0212 4.85433 57.1899 6.401C56.3779 7.94767 55.9719 9.31067 55.9719 10.49C55.9719 11.65 56.0879 12.3847 56.3199 12.694ZM52.0859 10.78C52.0859 8.36333 52.8302 6.07233 54.3189 3.907C55.8269 1.74167 57.3155 0.658999 58.7849 0.658999C60.2542 0.658999 61.4915 1.181 62.4969 2.225C63.5022 3.24967 64.0049 4.49667 64.0049 5.966C64.0049 7.416 63.6569 8.895 62.9609 10.403C62.2649 11.911 61.2885 13.1677 60.0319 14.173C58.7752 15.159 57.4315 15.652 56.0009 15.652C54.9375 15.652 54.0192 15.1783 53.2459 14.231C52.4725 13.2837 52.0859 12.1333 52.0859 10.78ZM76.2734 1.413C76.3894 0.929667 76.7084 0.688 77.2304 0.688C77.7524 0.688 78.2841 1.01667 78.8254 1.674C79.3861 2.33133 79.6664 3.07567 79.6664 3.907C79.6664 4.39033 79.4924 5.154 79.1444 6.198C78.7964 7.242 78.5451 7.98633 78.3904 8.431C78.2551 8.87567 78.0521 9.48467 77.7814 10.258C77.5108 11.012 77.2594 11.7177 77.0274 12.375C76.8148 13.013 76.5151 13.8733 76.1284 14.956C75.7611 16.0387 75.4228 17.044 75.1134 17.972C74.5141 19.712 73.7794 21.0557 72.9094 22.003C72.0588 22.9503 70.9471 23.424 69.5744 23.424C68.2018 23.424 66.9741 23.0567 65.8914 22.322C64.8088 21.6067 64.2674 20.8817 64.2674 20.147C64.2674 19.7023 64.4608 19.2093 64.8474 18.668C65.2534 18.1267 65.5918 17.856 65.8624 17.856C66.1524 17.856 66.5198 18.0783 66.9644 18.523C67.4284 18.987 67.9021 19.4413 68.3854 19.886C68.8688 20.35 69.2941 20.582 69.6614 20.582C69.9128 20.582 70.1158 20.466 70.2704 20.234C70.4444 20.002 70.5798 19.7893 70.6764 19.596C70.7924 19.422 70.9084 19.1707 71.0244 18.842C71.1404 18.5327 71.2468 18.2427 71.3434 17.972C71.4401 17.7013 71.5561 17.3437 71.6914 16.899C71.8268 16.4543 71.9428 16.058 72.0394 15.71C72.3681 14.666 72.6484 13.738 72.8804 12.926C72.2424 13.7573 71.5851 14.4243 70.9084 14.927C70.2318 15.4103 69.6034 15.652 69.0234 15.652C68.4628 15.652 67.7571 15.2267 66.9064 14.376C66.0751 13.506 65.6594 12.5587 65.6594 11.534C65.6594 10.49 65.8818 9.098 66.3264 7.358C66.7904 5.618 67.3608 4.07133 68.0374 2.718C68.7141 1.36467 69.3134 0.688 69.8354 0.688C70.4348 0.688 70.9954 0.949 71.5174 1.471C72.0588 1.97367 72.3294 2.46667 72.3294 2.95C72.3294 3.414 72.0878 4.168 71.6044 5.212C71.1404 6.256 70.6668 7.39667 70.1834 8.634C69.7001 9.87133 69.4584 10.925 69.4584 11.795C69.4584 11.911 69.5068 11.969 69.6034 11.969C69.8548 11.969 70.3864 11.505 71.1984 10.577C72.0104 9.62967 72.9191 8.29567 73.9244 6.575C74.9491 4.835 75.7321 3.11433 76.2734 1.413ZM84.6119 12.694C85.6559 12.23 86.5645 11.2923 87.3379 9.881C88.1112 8.46967 88.4979 7.14533 88.4979 5.908C88.4979 4.67067 88.3239 3.82 87.9759 3.356C87.1445 3.83933 86.3132 4.85433 85.4819 6.401C84.6699 7.94767 84.2639 9.31067 84.2639 10.49C84.2639 11.65 84.3799 12.3847 84.6119 12.694ZM80.3779 10.78C80.3779 8.36333 81.1222 6.07233 82.6109 3.907C84.1189 1.74167 85.6075 0.658999 87.0769 0.658999C88.5462 0.658999 89.7835 1.181 90.7889 2.225C91.7942 3.24967 92.2969 4.49667 92.2969 5.966C92.2969 7.416 91.9489 8.895 91.2529 10.403C90.5569 11.911 89.5805 13.1677 88.3239 14.173C87.0672 15.159 85.7235 15.652 84.2929 15.652C83.2295 15.652 82.3112 15.1783 81.5379 14.231C80.7645 13.2837 80.3779 12.1333 80.3779 10.78ZM95.3434 5.589L95.1694 2.312C95.1694 1.22933 95.5078 0.688 96.1844 0.688C96.5711 0.688 96.9481 0.833 97.3154 1.123C97.7021 1.413 97.9921 1.86733 98.1854 2.486C98.8428 1.906 99.5581 1.442 100.331 1.094C101.124 0.726666 101.82 0.542998 102.419 0.542998C103.831 0.542998 104.536 0.881332 104.536 1.558C104.536 1.906 104.469 2.167 104.333 2.341C104.217 2.49567 104.121 2.61167 104.043 2.689C103.985 2.76633 103.869 2.87267 103.695 3.008C103.541 3.124 103.425 3.211 103.347 3.269C102.903 3.559 102.584 3.762 102.39 3.878C101.52 4.41933 100.776 5.07667 100.157 5.85C99.5388 6.604 99.0748 7.65767 98.7654 9.011C98.2434 11.2343 97.7311 12.897 97.2284 13.999C96.7451 15.0817 96.1941 15.623 95.5754 15.623C94.9761 15.623 94.5218 15.333 94.2124 14.753C93.9224 14.173 93.7774 13.6317 93.7774 13.129C93.7774 12.607 93.9611 11.8337 94.3284 10.809C94.7151 9.78433 94.9761 8.90467 95.1114 8.17C95.2661 7.416 95.3434 6.55567 95.3434 5.589Z" fill="#3268F9"/>
</svg>
